<svg id="visual" viewBox="0 0 900 600" width="900" height="600" xmlns="http://www.w3.org/2000/svg" xmlns:xlink="http://www.w3.org/1999/xlink" version="1.1"><g><g transform="translate(519 78)"><path d="M0 -19.4L16.8 -9.7L16.8 9.7L0 19.4L-16.8 9.7L-16.8 -9.7Z" fill="none" stroke="#45b6fe" stroke-width="2"></path></g><g transform="translate(591 542)"><path d="M0 -13L11.3 -6.5L11.3 6.5L0 13L-11.3 6.5L-11.3 -6.5Z" fill="none" stroke="#45b6fe" stroke-width="2"></path></g><g transform="translate(148 167)"><path d="M0 -15L13 -7.5L13 7.5L0 15L-13 7.5L-13 -7.5Z" stroke="#45b6fe" fill="none" stroke-width="2"></path></g><g transform="translate(74 130)"><path d="M0 -15L13 -7.5L13 7.5L0 15L-13 7.5L-13 -7.5Z" stroke="#45b6fe" fill="none" stroke-width="2"></path></g><g transform="translate(631 73)"><path d="M0 -16L13.9 -8L13.9 8L0 16L-13.9 8L-13.9 -8Z" stroke="#45b6fe" fill="none" stroke-width="2"></path></g><g transform="translate(806 284)"><path d="M0 -17L14.7 -8.5L14.7 8.5L0 17L-14.7 8.5L-14.7 -8.5Z" stroke="#45b6fe" fill="none" stroke-width="2"></path></g></g></svg>