<svg id="visual" viewBox="0 0 900 600" width="900" height="600" xmlns="http://www.w3.org/2000/svg" xmlns:xlink="http://www.w3.org/1999/xlink" version="1.1"><path d="M0 121L30 114.3C60 107.7 120 94.3 180 93.8C240 93.3 300 105.7 360 121.2C420 136.7 480 155.3 540 166.3C600 177.3 660 180.7 720 172.7C780 164.7 840 145.3 870 135.7L900 126L900 0L870 0C840 0 780 0 720 0C660 0 600 0 540 0C480 0 420 0 360 0C300 0 240 0 180 0C120 0 60 0 30 0L0 0Z" fill="#F0F8FF" stroke-linecap="round" stroke-linejoin="miter"></path></svg>